<!DOCTYPE svg PUBLIC "-//W3C//DTD SVG 1.1//EN" "http://www.w3.org/Graphics/SVG/1.1/DTD/svg11.dtd">
<!-- Uploaded to: SVG Repo, www.svgrepo.com, Transformed by: SVG Repo Mixer Tools -->
<svg fill="#000000" width="800px" height="800px" viewBox="0 0 24 24" id="airbnb-square" data-name="Flat Color" xmlns="http://www.w3.org/2000/svg" class="icon flat-color">
<g id="SVGRepo_bgCarrier" stroke-width="0"/>
<g id="SVGRepo_tracerCarrier" stroke-linecap="round" stroke-linejoin="round"/>
<g id="SVGRepo_iconCarrier">
<rect id="primary" x="2" y="2" width="20" height="20" rx="2" style="fill: #F5F5F5;"/>
<path id="secondary" d="M14.77,18a3.2,3.2,0,0,1-2.24-.91L12,16.58l-.53.51A3.2,3.2,0,0,1,9.23,18,3.23,3.23,0,0,1,6,14.77a5.23,5.23,0,0,1,.67-2.56L9.27,7.6a3.13,3.13,0,0,1,5.46,0l2.6,4.61A5.23,5.23,0,0,1,18,14.77,3.23,3.23,0,0,1,14.77,18Zm-1.4-2.88.55.54A1.23,1.23,0,0,0,16,14.77a3.14,3.14,0,0,0-.42-1.58L13,8.58a1.18,1.18,0,0,0-2,0l-2.6,4.61A3.24,3.24,0,0,0,8,14.77a1.23,1.23,0,0,0,2.08.89l.55-.54A3.9,3.9,0,0,1,10,13a2,2,0,0,1,4,0A3.9,3.9,0,0,1,13.37,15.12ZM12,13h0Z" style="fill: #590BD8;"/>
</g>
</svg>